<?xml version="1.0" encoding="iso-8859-1"?>
<!-- Generator: Adobe Illustrator 19.0.0, SVG Export Plug-In . SVG Version: 6.00 Build 0)  -->
<svg version="1.1" id="Capa_1" xmlns="http://www.w3.org/2000/svg" xmlns:xlink="http://www.w3.org/1999/xlink" x="0px" y="0px"
	 viewBox="0 0 496 496" style="enable-background:new 0 0 496 496;" xml:space="preserve">
<g>
	<g>
		<path d="M496,176c0-67.88-53.152-123.432-120-127.592V0H0v448h320c0,26.472,21.528,48,48,48s48-21.528,48-48V336h16v-16h-16
			v-25.424C462.848,275.544,496,229.6,496,176z M320,320h-16v16h16v96H16V16h344v32.408c-5.424,0.336-10.776,0.936-16,1.928V32H32
			v96h217.424c-6.032,14.84-9.424,31.024-9.424,48c0,53.6,33.152,99.544,80,118.576V320z M328,48v6.488
			c-30,9.904-55.064,30.616-70.68,57.512H48V48H328z M400,448c0,17.648-14.352,32-32,32s-32-14.352-32-32V336h64V448z M400,320h-64
			v-20.216c10.248,2.656,20.936,4.216,32,4.216c11.064,0,21.752-1.56,32-4.216V320z M368,288c-61.76,0-112-50.24-112-112
			S306.24,64,368,64s112,50.24,112,112S429.76,288,368,288z"/>
	</g>
</g>
<g>
	<g>
		<path d="M248,280c-6.072,0-11.568,2.344-15.8,6.072l-32.6-18.112c0.216-1.296,0.4-2.6,0.4-3.96c0-13.232-10.768-24-24-24
			s-24,10.768-24,24c0,3.2,0.656,6.24,1.8,9.04l-38.288,34.032C112.08,305.176,108.192,304,104,304c-1.208,0-2.36,0.184-3.52,0.352
			l-26.904-56.136C77.528,243.944,80,238.272,80,232c0-13.232-10.768-24-24-24s-24,10.768-24,24s10.768,24,24,24
			c1.168,0,2.28-0.184,3.4-0.344l26.944,56.224C82.44,316.144,80,321.776,80,328c0,13.232,10.768,24,24,24s24-10.768,24-24
			c0-3.2-0.656-6.24-1.8-9.04l38.288-34.032C167.92,286.824,171.808,288,176,288c6.072,0,11.56-2.344,15.792-6.072L224.4,300.04
			c-0.216,1.296-0.4,2.608-0.4,3.96c0,13.232,10.768,24,24,24s24-10.768,24-24S261.232,280,248,280z M56,240c-4.416,0-8-3.584-8-8
			s3.584-8,8-8s8,3.584,8,8S60.416,240,56,240z M104,336c-4.416,0-8-3.584-8-8c0-4.416,3.584-8,8-8s8,3.584,8,8
			C112,332.416,108.416,336,104,336z M176,272c-4.416,0-8-3.584-8-8c0-4.416,3.584-8,8-8s8,3.584,8,8
			C184,268.416,180.416,272,176,272z M248,312c-4.416,0-8-3.584-8-8c0-4.416,3.584-8,8-8s8,3.584,8,8
			C256,308.416,252.416,312,248,312z"/>
	</g>
</g>
<g>
	<g>
		<rect x="288" y="400" width="16" height="16"/>
	</g>
</g>
<g>
	<g>
		<rect x="32" y="400" width="240" height="16"/>
	</g>
</g>
<g>
	<g>
		<rect x="32" y="368" width="272" height="16"/>
	</g>
</g>
<g>
	<g>
		<rect x="32" y="144" width="192" height="16"/>
	</g>
</g>
<g>
	<g>
		<rect x="32" y="176" width="192" height="16"/>
	</g>
</g>
<g>
	<g>
		<path d="M368,80c-52.936,0-96,43.064-96,96c0,52.936,43.064,96,96,96c20.984,0,40.92-6.656,57.664-19.24l-9.624-12.784
			C402.104,250.464,385.496,256,368,256c-24.84,0-47.072-11.384-61.76-29.216l62.696-41.8l69.984,27.992
			c-3.344,6.408-7.544,12.4-12.6,17.776l11.656,10.952C454.76,223.856,464,200.512,464,176C464,123.064,420.936,80,368,80z
			 M360,171.72l-62.632,41.752C291.408,202.288,288,189.536,288,176c0-41.408,31.632-75.568,72-79.592V171.72z M376,170.584V96.408
			c40.368,4.024,72,38.184,72,79.592c0,7.576-1.072,15.016-3.112,22.136L376,170.584z"/>
	</g>
</g>
<g>
</g>
<g>
</g>
<g>
</g>
<g>
</g>
<g>
</g>
<g>
</g>
<g>
</g>
<g>
</g>
<g>
</g>
<g>
</g>
<g>
</g>
<g>
</g>
<g>
</g>
<g>
</g>
<g>
</g>
</svg>
