<?xml version="1.0" encoding="iso-8859-1"?>
<!-- Generator: Adobe Illustrator 19.0.0, SVG Export Plug-In . SVG Version: 6.00 Build 0)  -->
<svg version="1.1" id="Capa_1" xmlns="http://www.w3.org/2000/svg" xmlns:xlink="http://www.w3.org/1999/xlink" x="0px" y="0px"
	 viewBox="0 0 496.08 496.08" style="enable-background:new 0 0 496.08 496.08;" xml:space="preserve">
<g>
	<g>
		<path d="M382.856,295.28c20.024-10.904,24.68-28.28,24.944-29.344l1.288-5.152L392.04,248c-10.016-7.512-16-19.48-16-32v-40
			V88.792c0-26.616-18.376-49.824-44.032-56.104C310.072,11.592,281.32,0,250.784,0h-13.496C172.64,0,120.04,52.6,120.04,117.256
			V176v40c0,12.52-5.984,24.488-16,32l-17.048,12.792l1.288,5.152c0.264,1.064,4.928,18.44,24.944,29.344
			c-19.688,8.808-33.184,28.56-33.184,51.088V432c0,13.232,10.768,24,24,24h24v22.936l118.864,16.984l1.136,0.16l120-17.144V456h24
			c13.232,0,24-10.768,24-24v-85.624C416.04,323.848,402.544,304.096,382.856,295.28z M382.44,260.8l7.824,5.864
			c-4.152,7.48-15.88,21.2-45.872,21.312l-56.44-7.056c0-0.312,0.088-0.6,0.088-0.92v-0.84c26.064-12.008,45.8-35.328,52.968-63.656
			c7.096-0.896,13.584-3.584,19.032-7.704v8.2C360.04,233.528,368.416,250.28,382.44,260.8z M248.04,272c-44.112,0-80-35.888-80-80
			v-56.128c28.072-1.064,55.512-8.816,80-22.616c24.488,13.808,51.928,21.552,80,22.616V192C328.04,236.112,292.152,272,248.04,272z
			 M271.504,284.976C269.208,295.832,259.568,304,248.04,304s-21.168-8.168-23.464-19.024c7.52,1.904,15.36,3.024,23.464,3.024
			S263.984,286.88,271.504,284.976z M343.704,198.632c0.152-2.2,0.336-4.392,0.336-6.632v-38.528c9.288,3.312,16,12.112,16,22.528
			C360.04,186.536,353.168,195.416,343.704,198.632z M136.04,117.256C136.04,61.424,181.464,16,237.296,16h13.496
			c27.048,0,52.48,10.528,71.6,29.656l1.712,1.712l2.376,0.48c19.44,3.888,33.56,21.104,33.56,40.944v55.416
			c-4.672-3.536-10.056-6.184-16-7.392V120h-9.352c-29.064,0-57.608-7.904-82.528-22.856l-4.12-2.472l-4.12,2.472
			C219,112.096,190.456,120,161.392,120h-9.352v16.808c-5.944,1.216-11.328,3.856-16,7.392V117.256z M152.04,153.472V192
			c0,2.24,0.184,4.432,0.336,6.632c-9.464-3.216-16.336-12.096-16.336-22.632C136.04,165.584,142.752,156.784,152.04,153.472z
			 M105.816,266.672l7.824-5.872c14.024-10.512,22.4-27.264,22.4-44.8v-8.208c5.44,4.12,11.928,6.808,19.032,7.704
			c7.168,28.336,26.904,51.648,52.968,63.656V280c0,0.32,0.088,0.608,0.096,0.928l-56.44,7.056
			C121.664,287.864,109.944,274.112,105.816,266.672z M104.04,440c-4.408,0-8-3.584-8-8v-24h80c8.824,0,16,7.176,16,16
			c0,8.824-7.176,16-16,16H104.04z M352.04,465.064l-96,13.72V400h-16v78.776l-96-13.72V456h32c17.648,0,32-14.352,32-32
			s-14.352-32-32-32h-32v-38.776l96,13.712V384h16v-17.064l96-13.712V392h-32c-17.648,0-32,14.352-32,32s14.352,32,32,32h32V465.064
			z M400.04,432c0,4.416-3.592,8-8,8h-72c-8.824,0-16-7.176-16-16c0-8.824,7.176-16,16-16h80V432z M400.048,392h-0.008h-32v-57.224
			l-120,17.144l-120-17.152V392h-32v-45.624c0-20.128,15.064-37.192,35.04-39.696l80.68-10.08c6.32,13.768,20.16,23.4,36.28,23.4
			s29.96-9.632,36.288-23.4l80.68,10.08c19.976,2.496,35.04,19.568,35.04,39.696V392z"/>
	</g>
</g>
<g>
	<g>
		<circle cx="200.04" cy="160" r="8"/>
	</g>
</g>
<g>
	<g>
		<circle cx="296.04" cy="160" r="8"/>
	</g>
</g>
<g>
	<g>
		<path d="M288.04,200c0,22.056-17.944,40-40,40c-22.056,0-40-17.944-40-40h-16c0,30.872,25.12,56,56,56s56-25.128,56-56H288.04z"/>
	</g>
</g>
<g>
</g>
<g>
</g>
<g>
</g>
<g>
</g>
<g>
</g>
<g>
</g>
<g>
</g>
<g>
</g>
<g>
</g>
<g>
</g>
<g>
</g>
<g>
</g>
<g>
</g>
<g>
</g>
<g>
</g>
</svg>
